<svg width="17" height="17" viewBox="0 0 17 17" fill="none" xmlns="http://www.w3.org/2000/svg">
<path d="M8.42846 1.37854C9.6808 1.37854 10.9351 1.73402 12.0559 2.40663C12.7667 2.83433 13.4054 3.37185 13.9481 3.99951L12.0758 3.93775C11.8559 3.93041 11.6717 4.10286 11.6645 4.32287C11.6573 4.54276 11.8296 4.72703 12.0496 4.73413L14.6401 4.81967C14.7889 4.88093 14.96 4.84669 15.0738 4.73276C15.1875 4.61883 15.2214 4.44775 15.1599 4.29896L15.0746 1.70912C15.0697 1.48911 14.8873 1.31479 14.6672 1.31965C14.4474 1.32463 14.2728 1.50704 14.2778 1.72692C14.2778 1.72991 14.2778 1.73265 14.278 1.73552L14.3273 3.22966C13.7792 2.64395 13.1528 2.13682 12.4659 1.72306C11.2214 0.976367 9.82524 0.581665 8.42846 0.581665C6.19721 0.581665 4.14003 1.50168 2.63668 3.17213C1.3049 4.65195 0.509766 6.64377 0.509766 8.50036C0.509766 8.72037 0.688066 8.8988 0.908203 8.8988C1.12834 8.8988 1.30664 8.72037 1.30664 8.50036C1.30664 6.83527 2.0252 5.04267 3.22898 3.70529C4.57943 2.20505 6.42582 1.37854 8.42846 1.37854Z" fill="#FF7200"/>
<path d="M16.0486 8.10193C15.8285 8.10193 15.6502 8.28023 15.6502 8.50037C15.6502 10.1653 14.9316 11.9581 13.7278 13.2956C12.3774 14.7958 10.531 15.6221 8.52834 15.6221C7.276 15.6221 6.02167 15.2668 4.90094 14.5942C4.1901 14.1664 3.55136 13.6289 3.00874 13.0013L4.88102 13.0631C5.10091 13.0702 5.28506 12.8977 5.29228 12.6779C5.2995 12.458 5.12718 12.2738 4.90717 12.2665L2.3167 12.1811C2.16791 12.1198 1.99683 12.1542 1.88303 12.268C1.76935 12.3819 1.73536 12.5528 1.79686 12.7016L1.88215 15.2915C1.88713 15.5116 2.06954 15.6861 2.28956 15.6811C2.50944 15.6762 2.68401 15.4938 2.67903 15.2738C2.67903 15.2709 2.67903 15.2682 2.67878 15.2652L2.62947 13.7711C3.17757 14.3569 3.80399 14.8638 4.49092 15.2778C5.73542 16.0246 7.13157 16.4192 8.52834 16.4192C10.7596 16.4192 12.8168 15.4993 14.3201 13.8288C15.6519 12.3489 16.447 10.3571 16.447 8.50037C16.447 8.28023 16.2687 8.10193 16.0486 8.10193Z" fill="#FF7200"/>
</svg>
