<svg width="109" height="98" viewBox="0 0 109 98" fill="none" xmlns="http://www.w3.org/2000/svg">
<path d="M108.256 13.4028C107.097 12.2499 105.358 12.2499 104.199 13.4028L49.9979 67.3028L29.274 46.5499C28.1146 45.3969 26.3756 45.3969 25.2162 46.5499C24.0568 47.7028 24.0568 49.4322 25.2162 50.5851L47.9689 73.2116C48.5486 73.7881 49.2732 74.0763 49.9979 74.0763C50.7225 74.0763 51.4471 73.7881 52.0268 73.2116L108.112 17.4381C109.271 16.4293 109.271 14.5557 108.256 13.4028Z" fill="#7000FF"/>
<path d="M92.75 5.76471C94.3442 5.76471 95.6485 4.46765 95.6485 2.88235C95.6485 1.29706 94.3442 0 92.75 0H5.79688C2.60859 0 0 2.59412 0 5.76471V92.2353C0 95.4059 2.60859 98 5.79688 98H92.75C95.9383 98 98.5469 95.4059 98.5469 92.2353V44.8206C98.5469 43.2353 97.2426 41.9382 95.6485 41.9382C94.0543 41.9382 92.75 43.2353 92.75 44.8206V92.2353H5.79688V5.76471H92.75Z" fill="#7000FF"/>
</svg>
